<?xml version="1.0" encoding="UTF-8"?>
<!DOCTYPE svg PUBLIC "-//W3C//DTD SVG 1.1//EN" "http://www.w3.org/Graphics/SVG/1.1/DTD/svg11.dtd">
<!-- Creator: CorelDRAW X7 -->
<svg xmlns="http://www.w3.org/2000/svg" xml:space="preserve" width="1712px" height="432px" version="1.1" style="shape-rendering:geometricPrecision; text-rendering:geometricPrecision; image-rendering:optimizeQuality; fill-rule:evenodd; clip-rule:evenodd"
viewBox="0 0 1097 276"
 xmlns:xlink="http://www.w3.org/1999/xlink">
 <defs>
  <style type="text/css">
   <![CDATA[
    .str0 {stroke:#31486F;stroke-width:2.66844}
    .str1 {stroke:#9F8558;stroke-width:2.66844}
    .fil1 {fill:none}
    .fil3 {fill:#FEFEFE;fill-rule:nonzero}
    .fil0 {fill:#FEFEFE;fill-rule:nonzero}
    .fil2 {fill:#D2D3D5;fill-rule:nonzero}
    .fil4 {fill:#31486F;fill-rule:nonzero}
   ]]>
  </style>
 </defs>
 <g id="Layer_x0020_1">
  <metadata id="CorelCorpID_0Corel-Layer"/>
  <polygon class="fil0" points="336,134 329,134 329,60 336,60 "/>
  <polygon id="1" class="fil0" points="385,67 369,67 369,134 362,134 362,67 345,67 345,60 385,60 "/>
  <path id="2" class="fil0" d="M475 80c0,10 -5,16 -14,18 -4,1 -10,2 -19,2l-5 0 0 34 -7 0 0 -74 14 0c8,0 14,0 17,1 4,1 8,4 10,7 3,3 4,7 4,12zm-7 0c0,-3 -1,-5 -2,-7 -2,-2 -3,-3 -6,-4 -2,-1 -5,-2 -10,-2l-13 0 0 25 12 0c8,1 14,-1 17,-5 1,-2 2,-5 2,-7z"/>
  <path id="3" class="fil0" d="M542 134l-7 0 0 -9c-6,7 -13,10 -21,10 -8,0 -15,-2 -20,-8 -5,-6 -8,-12 -8,-20 0,-8 3,-15 8,-21 5,-5 12,-8 20,-8 9,0 16,4 21,11l0 -10 7 0 0 55zm-6 -27c0,-6 -2,-12 -6,-16 -4,-4 -10,-6 -16,-6 -8,0 -14,3 -18,11 -2,3 -3,7 -3,11 0,4 1,7 3,11 2,3 5,6 8,8 3,2 7,3 10,3 4,0 8,-1 11,-3 3,-2 6,-4 8,-8 2,-3 3,-7 3,-11z"/>
  <polygon id="4" class="fil0" points="582,85 571,85 571,134 564,134 564,85 554,85 554,79 564,79 564,59 571,59 571,79 582,79 "/>
  <path id="5" class="fil0" d="M639 134l-7 0 0 -26c0,-6 0,-11 -1,-13 -1,-7 -6,-10 -13,-10 -4,0 -8,1 -11,4 -4,2 -6,6 -7,10 -1,3 -1,8 -1,15l0 20 -7 0 0 -76 7 0 0 31c6,-7 12,-11 20,-11 4,0 8,1 11,3 3,2 5,5 7,8 1,4 2,9 2,17l0 28z"/>
  <path id="6" class="fil0" d="M724 116c0,6 -2,10 -6,14 -4,4 -9,6 -15,6 -9,0 -16,-5 -22,-16l7 -3c4,8 9,12 15,12 5,0 9,-2 12,-7 1,-2 1,-4 1,-6 0,-2 -1,-5 -2,-7 -2,-3 -6,-7 -12,-11 -6,-5 -10,-9 -12,-11 -3,-4 -4,-7 -4,-11 0,-7 3,-12 9,-15 2,-2 5,-3 9,-3 7,0 13,4 19,12l-6 5c-2,-3 -4,-5 -6,-6 -2,-2 -5,-3 -7,-3 -3,0 -6,1 -8,2 -1,2 -2,4 -2,7 0,4 1,7 4,10 1,1 4,3 10,7 4,4 8,7 11,10 3,5 5,9 5,14z"/>
  <path id="7" class="fil0" d="M792 107c0,8 -3,15 -8,20 -6,6 -12,8 -20,8 -8,0 -15,-2 -20,-8 -6,-5 -8,-12 -8,-20 0,-8 2,-14 7,-20 6,-6 12,-9 21,-9 8,0 15,3 20,9 5,6 8,12 8,20zm-7 0c0,-6 -2,-11 -6,-16 -4,-4 -9,-6 -15,-6 -6,0 -11,2 -15,6 -4,5 -6,10 -6,16 0,4 1,7 3,11 1,3 4,6 7,8 3,2 7,3 11,3 8,0 14,-4 18,-11 2,-3 3,-7 3,-11z"/>
  <polygon id="8" class="fil0" points="811,134 804,134 804,58 811,58 "/>
  <path id="9" class="fil0" d="M871 106c0,6 0,11 -2,15 -1,5 -4,9 -8,11 -4,2 -8,3 -13,3 -11,0 -18,-4 -21,-12 -2,-4 -3,-10 -3,-17l0 -27 7 0 0 26c0,6 0,10 1,13 1,3 3,6 6,8 3,2 6,3 10,3 3,0 6,-1 9,-3 3,-2 5,-4 6,-8 1,-2 1,-6 1,-13l0 -26 7 0 0 27z"/>
  <polygon id="10" class="fil0" points="911,85 900,85 900,134 893,134 893,85 883,85 883,79 893,79 893,59 900,59 900,79 911,79 "/>
  <path id="11" class="fil0" d="M929 63c0,1 -1,3 -2,4 -1,1 -2,1 -4,1 -1,0 -3,0 -4,-1 -1,-1 -1,-3 -1,-4 0,-2 0,-3 1,-4 1,-2 3,-2 4,-2 2,0 3,0 4,2 1,1 2,2 2,4zm-2 71l-7 0 0 -55 7 0 0 55z"/>
  <path id="12" class="fil0" d="M995 107c0,8 -3,15 -8,20 -6,6 -12,8 -20,8 -8,0 -15,-2 -20,-8 -6,-5 -8,-12 -8,-20 0,-8 2,-14 7,-20 6,-6 12,-9 21,-9 8,0 15,3 20,9 5,6 8,12 8,20zm-7 0c0,-6 -2,-11 -6,-16 -4,-4 -9,-6 -15,-6 -6,0 -11,2 -15,6 -4,5 -6,10 -6,16 0,4 1,7 3,11 1,3 4,6 7,8 3,2 7,3 11,3 8,0 14,-4 18,-11 2,-3 3,-7 3,-11z"/>
  <path id="13" class="fil0" d="M1055 134l-7 0 0 -26c0,-6 -1,-10 -1,-13 -2,-7 -6,-10 -14,-10 -4,0 -8,1 -11,4 -3,2 -5,6 -6,10 -1,3 -1,8 -1,15l0 20 -7 0 0 -55 7 0 0 10c5,-7 12,-11 20,-11 4,0 7,1 10,3 4,2 6,5 7,8 2,4 3,9 3,17l0 28z"/>
  <path id="14" class="fil0" d="M1097 119c0,5 -2,9 -5,12 -3,3 -7,4 -12,4 -6,0 -12,-2 -15,-7l4 -5c3,4 7,6 11,6 3,0 5,-1 7,-3 2,-2 3,-4 3,-6 0,-3 -1,-5 -4,-7 -1,-1 -3,-3 -7,-5 -4,-2 -7,-4 -8,-6 -3,-2 -4,-6 -4,-10 0,-4 1,-7 4,-10 3,-3 6,-4 11,-4 5,0 10,2 15,7l-5 5c-4,-4 -7,-5 -11,-5 -2,0 -4,0 -5,2 -2,1 -3,3 -3,5 0,4 4,7 10,11 5,2 8,4 10,6 2,3 4,6 4,10z"/>
  <path class="fil0" d="M351 177c0,5 -2,8 -7,9 -2,0 -5,1 -9,1l-3 0 0 17 -3 0 0 -37 7 0c4,0 7,0 8,1 2,0 4,1 5,3 2,2 2,4 2,6zm-4 0c0,-1 0,-2 -1,-3 0,-1 -1,-2 -2,-3 -1,0 -3,0 -5,0l-7 0 0 12 6 0c4,0 7,-1 8,-3 1,-1 1,-2 1,-3z"/>
  <path id="1" class="fil0" d="M402 177l-2 3c-1,0 -2,-1 -2,-1 -3,0 -5,2 -6,6 0,2 0,5 0,10l0 9 -4 0 0 -27 4 0 0 4c2,-3 4,-5 7,-5 0,0 1,0 3,1z"/>
  <path id="2" class="fil0" d="M440 168c0,1 0,2 -1,2 0,1 -1,1 -2,1 0,0 -1,0 -2,-1 0,0 0,-1 0,-2 0,0 0,-1 0,-2 1,0 2,0 2,0 1,0 2,0 2,0 1,1 1,2 1,2zm-1 36l-3 0 0 -27 3 0 0 27z"/>
  <polygon id="3" class="fil0" points="500,177 488,204 488,204 475,177 479,177 488,196 497,177 "/>
  <path id="4" class="fil0" d="M564 204l-4 0 0 -5c-3,4 -6,5 -10,5 -4,0 -7,-1 -10,-4 -3,-3 -4,-6 -4,-10 0,-4 1,-7 4,-10 3,-3 6,-4 10,-4 4,0 8,2 10,6l0 -5 4 0 0 27zm-4 -14c0,-3 -1,-5 -3,-7 -2,-3 -4,-4 -7,-4 -4,0 -7,2 -9,6 -1,1 -2,3 -2,5 0,2 1,4 2,6 1,1 2,3 4,4 1,1 3,1 5,1 2,0 4,0 5,-1 2,-1 3,-3 4,-4 1,-2 1,-4 1,-6z"/>
  <polygon id="5" class="fil0" points="615,180 610,180 610,204 606,204 606,180 601,180 601,177 606,177 606,167 610,167 610,177 615,177 "/>
  <path id="6" class="fil0" d="M678 190l-24 0c0,3 1,6 3,8 2,2 4,3 7,3 3,0 5,-1 7,-2 1,-1 2,-3 3,-4l3 1c-2,4 -4,6 -8,7 -1,1 -3,1 -5,1 -4,0 -7,-1 -10,-4 -2,-2 -4,-6 -4,-10 0,-3 1,-6 3,-9 3,-3 7,-5 11,-5 5,0 8,2 11,5 2,3 3,6 3,9zm-4 -3c-1,-3 -3,-5 -5,-7 -2,0 -3,-1 -5,-1 -3,0 -5,1 -7,3 -1,1 -2,3 -3,5l20 0z"/>
  <polygon id="7" class="fil0" points="752,204 735,204 735,167 738,167 738,200 752,200 "/>
  <path id="8" class="fil0" d="M793 168c0,1 0,2 -1,2 0,1 -1,1 -2,1 -1,0 -1,0 -2,-1 0,0 -1,-1 -1,-2 0,0 1,-1 1,-2 1,0 1,0 2,0 1,0 2,0 2,0 1,1 1,2 1,2zm-1 36l-4 0 0 -27 4 0 0 27z"/>
  <path id="9" class="fil0" d="M870 204l-3 0 0 -15c0,-2 0,-4 0,-5 -1,-2 -2,-3 -3,-4 -1,0 -2,-1 -3,-1 -2,0 -4,1 -5,2 -1,1 -2,2 -3,4 0,1 -1,4 -1,8l0 11 -3 0 0 -14c0,-3 0,-4 -1,-5 0,-2 -1,-4 -2,-5 -1,0 -2,-1 -3,-1 -2,0 -4,1 -5,2 -1,1 -2,2 -3,4 -1,1 -1,4 -1,7l0 12 -3 0 0 -27 3 0 0 4c3,-3 6,-5 9,-5 3,0 5,1 7,3 0,1 1,2 2,3 2,-4 5,-6 9,-6 4,0 7,2 8,5 1,2 1,5 1,8l0 15z"/>
  <path id="10" class="fil0" d="M913 168c0,1 0,2 -1,2 0,1 -1,1 -2,1 0,0 -1,0 -2,-1 0,0 0,-1 0,-2 0,0 0,-1 0,-2 1,0 2,0 2,0 1,0 2,0 2,0 1,1 1,2 1,2zm-1 36l-3 0 0 -27 3 0 0 27z"/>
  <polygon id="11" class="fil0" points="963,180 957,180 957,204 954,204 954,180 949,180 949,177 954,177 954,167 957,167 957,177 963,177 "/>
  <path id="12" class="fil0" d="M1026 190l-24 0c0,3 1,6 3,8 1,2 4,3 7,3 3,0 5,-1 7,-2 1,-1 2,-3 3,-4l3 1c-2,4 -5,6 -8,7 -1,1 -3,1 -5,1 -4,0 -7,-1 -10,-4 -2,-2 -4,-6 -4,-10 0,-3 1,-6 3,-9 3,-3 6,-5 11,-5 4,0 8,2 11,5 2,3 3,6 3,9zm-4 -3c-1,-3 -3,-5 -6,-7 -1,0 -3,-1 -4,-1 -3,0 -5,1 -7,3 -1,1 -2,3 -3,5l20 0z"/>
  <path id="13" class="fil0" d="M1090 204l-3 0 0 -5c-3,4 -7,5 -11,5 -4,0 -7,-1 -10,-4 -2,-3 -4,-6 -4,-10 0,-4 2,-7 4,-10 3,-3 6,-4 10,-4 5,0 8,2 11,6l0 -16 3 0 0 38zm-3 -14c0,-3 -1,-5 -3,-7 -2,-3 -5,-4 -8,-4 -4,0 -7,2 -9,6 -1,1 -1,3 -1,5 0,2 0,4 1,6 1,1 3,3 4,4 2,1 4,1 5,1 2,0 4,0 6,-1 1,-1 3,-3 4,-4 0,-2 1,-4 1,-6z"/>
  <line class="fil1 str0" x1="327" y1="154" x2="706" y2= "154" />
  <line class="fil1 str1" x1="706" y1="154" x2="1092" y2= "154" />
  <path class="fil2" d="M137 10c-74,0 -134,59 -134,133 0,74 60,133 134,133 20,0 40,-4 57,-13l-27 -27 22 -19 30 30c31,-24 51,-62 51,-104 0,-74 -60,-133 -133,-133z"/>
  <path class="fil3" d="M15 140c0,69 56,122 125,122 70,0 126,-53 126,-122 0,-69 -56,-126 -126,-126 -69,0 -125,57 -125,126z"/>
  <path class="fil2" d="M166 270c0,0 -117,-169 95,-255 0,0 -180,95 -75,240l-20 15z"/>
  <path class="fil2" d="M214 242c0,0 -81,-122 79,-227 0,0 -126,108 -64,217l-15 10z"/>
  <polygon class="fil2" points="261,15 230,23 247,21 "/>
  <polygon class="fil2" points="293,14 282,31 285,22 "/>
  <path class="fil4" d="M133 0c-73,0 -133,60 -133,133 0,74 60,134 133,134 21,0 41,-5 58,-14l-27 -27 22 -19 30 31c31,-25 51,-62 51,-105 0,-73 -60,-133 -134,-133z"/>
  <path class="fil3" d="M12 130c0,69 56,123 125,123 70,0 126,-54 126,-123 0,-69 -56,-125 -126,-125 -69,0 -125,56 -125,125z"/>
  <path class="fil4" d="M163 261c0,0 -117,-170 95,-256 0,0 -180,96 -75,240l-20 16z"/>
  <path class="fil4" d="M210 232c0,0 -80,-122 79,-227 0,0 -125,108 -64,217l-15 10z"/>
  <polygon class="fil4" points="258,5 227,13 244,11 "/>
  <polygon class="fil4" points="289,5 278,22 281,12 "/>
 </g>
</svg>
