<?xml version="1.0" encoding="UTF-8"?>
<!DOCTYPE svg PUBLIC "-//W3C//DTD SVG 1.1//EN" "http://www.w3.org/Graphics/SVG/1.1/DTD/svg11.dtd">
<!-- Creator: CorelDRAW X7 -->
<svg xmlns="http://www.w3.org/2000/svg" xml:space="preserve" width="1712px" height="432px" version="1.1" style="shape-rendering:geometricPrecision; text-rendering:geometricPrecision; image-rendering:optimizeQuality; fill-rule:evenodd; clip-rule:evenodd"
viewBox="0 0 966 244"
 xmlns:xlink="http://www.w3.org/1999/xlink">
 <defs>
  <style type="text/css">
   <![CDATA[
    .str0 {stroke:#31486F;stroke-width:2.35087}
    .str1 {stroke:#9F8558;stroke-width:2.35087}
    .fil6 {fill:none}
    .fil1 {fill:#F1F1F0}
    .fil0 {fill:#EEEFF0}
    .fil8 {fill:#FEFEFE;fill-rule:nonzero}
    .fil7 {fill:#D2D3D5;fill-rule:nonzero}
    .fil2 {fill:#BDBFC1;fill-rule:nonzero}
    .fil4 {fill:#9F8558;fill-rule:nonzero}
    .fil3 {fill:#31486F;fill-rule:nonzero}
    .fil5 {fill:#9F8558;fill-rule:nonzero}
   ]]>
  </style>
 </defs>
 <g id="Layer_x0020_1">
  <metadata id="CorelCorpID_0Corel-Layer"/>
  <g id="_217399449456">
   <polygon class="fil0" points="748,56 745,59 740,56 743,53 "/>
   <polygon class="fil1" points="745,59 748,56 750,57 748,61 "/>
   <polygon class="fil2" points="296,123 290,123 290,58 296,58 "/>
   <polygon id="1" class="fil2" points="339,64 325,64 325,123 319,123 319,64 304,64 304,58 339,58 "/>
   <path id="2" class="fil2" d="M419 75c0,9 -5,15 -13,17 -3,0 -9,1 -17,1l-4 0 0 30 -7 0 0 -65 13 0c7,0 12,0 15,1 4,1 7,3 9,6 2,3 4,6 4,10zm-7 0c0,-2 -1,-4 -2,-6 -1,-1 -3,-3 -4,-4 -2,0 -6,-1 -10,-1l-11 0 0 22 11 1c7,0 12,-2 14,-6 1,-1 2,-3 2,-6z"/>
   <path id="3" class="fil2" d="M478 123l-7 0 0 -8c-5,6 -11,9 -19,9 -6,0 -12,-2 -17,-7 -5,-5 -7,-11 -7,-18 0,-7 3,-13 7,-18 5,-5 11,-7 18,-7 7,0 14,3 18,10l0 -9 7 0 0 48zm-6 -24c0,-5 -2,-10 -5,-14 -4,-3 -8,-5 -14,-5 -7,0 -12,3 -16,9 -2,3 -3,7 -3,10 0,4 1,7 3,10 2,3 4,5 7,7 3,2 6,3 9,3 3,0 7,-1 10,-3 3,-2 5,-4 6,-7 2,-3 3,-6 3,-10z"/>
   <polygon id="4" class="fil2" points="513,80 503,80 503,123 497,123 497,80 488,80 488,75 497,75 497,57 503,57 503,75 513,75 "/>
   <path id="5" class="fil2" d="M563 123l-6 0 0 -23c0,-5 0,-9 -1,-11 -1,-6 -5,-10 -12,-10 -3,0 -7,2 -10,4 -3,3 -4,6 -5,9 -1,3 -1,7 -1,13l0 18 -6 0 0 -67 6 0 0 28c5,-7 11,-10 18,-10 3,0 6,1 9,2 3,2 5,5 6,8 1,3 2,8 2,14l0 25z"/>
   <path class="fil2" d="M638 105c0,5 -2,9 -6,13 -3,3 -7,5 -12,5 -8,0 -15,-5 -20,-14l6 -3c4,7 8,10 13,10 5,0 8,-2 10,-5 1,-2 2,-4 2,-6 0,-2 -1,-4 -2,-6 -2,-3 -6,-6 -11,-10 -5,-4 -9,-7 -10,-10 -3,-3 -4,-6 -4,-10 0,-6 3,-10 8,-13 2,-1 5,-2 8,-2 6,0 12,4 17,11l-6 4c-1,-3 -3,-5 -4,-6 -3,-1 -5,-2 -7,-2 -3,0 -5,1 -6,2 -2,2 -3,4 -3,6 0,3 1,6 4,9 1,0 4,3 8,6 5,3 8,6 10,9 3,4 5,8 5,12z"/>
   <path id="1" class="fil2" d="M698 97c0,7 -3,13 -8,18 -4,5 -10,7 -17,7 -7,0 -13,-2 -18,-7 -5,-5 -7,-11 -7,-18 0,-7 2,-12 7,-17 4,-6 11,-8 18,-8 7,0 13,2 18,8 4,5 7,10 7,17zm-7 0c0,-5 -2,-10 -5,-14 -4,-3 -8,-5 -13,-5 -5,0 -10,2 -13,5 -4,4 -6,9 -6,14 0,4 1,7 3,10 1,3 4,5 7,7 2,1 5,2 9,2 7,0 12,-3 16,-9 1,-3 2,-6 2,-10z"/>
   <polygon id="2" class="fil2" points="714,121 708,121 708,54 714,54 "/>
   <path id="3" class="fil2" d="M767 96c0,6 0,10 -1,13 -1,5 -4,8 -8,10 -3,2 -7,3 -11,3 -9,0 -16,-3 -19,-11 -1,-3 -2,-8 -2,-15l0 -23 6 0 0 22c0,6 0,10 1,12 1,3 3,5 5,7 3,1 6,2 9,2 3,0 6,-1 8,-2 3,-2 4,-4 5,-7 1,-2 1,-6 1,-12l0 -22 6 0 0 23z"/>
   <polygon id="4" class="fil2" points="802,78 793,78 793,121 786,121 786,78 778,78 778,73 786,73 786,55 793,55 793,73 802,73 "/>
   <path id="5" class="fil2" d="M818 58c0,1 0,3 -1,4 -1,1 -2,1 -4,1 -1,0 -2,0 -3,-1 -1,-1 -2,-3 -2,-4 0,-1 1,-3 2,-4 1,-1 2,-1 3,-1 2,0 3,0 4,1 1,1 1,3 1,4zm-1 63l-7 0 0 -48 7 0 0 48z"/>
   <path id="6" class="fil2" d="M876 97c0,7 -2,13 -7,18 -4,5 -10,7 -17,7 -7,0 -13,-2 -18,-7 -5,-5 -7,-11 -7,-18 0,-7 2,-12 6,-17 5,-6 11,-8 19,-8 7,0 13,2 18,8 4,5 6,10 6,17zm-6 0c0,-5 -2,-10 -5,-14 -4,-3 -8,-5 -13,-5 -6,0 -10,2 -13,5 -4,4 -6,9 -6,14 0,4 1,7 3,10 1,3 4,5 6,7 3,1 6,2 10,2 7,0 12,-3 16,-9 1,-3 2,-6 2,-10z"/>
   <path id="7" class="fil2" d="M929 121l-6 0 0 -23c0,-5 0,-9 -1,-11 -1,-6 -5,-10 -12,-10 -3,0 -7,2 -10,4 -2,3 -4,6 -5,9 -1,3 -1,7 -1,13l0 18 -6 0 0 -48 6 0 0 8c5,-6 11,-9 18,-9 3,0 6,0 9,2 3,2 5,4 6,8 1,3 2,8 2,14l0 25z"/>
   <path id="8" class="fil2" d="M966 108c0,4 -1,8 -4,10 -3,3 -6,4 -10,4 -6,0 -11,-2 -14,-7l4 -4c3,3 6,5 9,5 3,0 5,-1 7,-2 1,-2 2,-3 2,-6 0,-2 -1,-4 -3,-6 -1,-1 -3,-2 -6,-4 -4,-1 -6,-3 -8,-5 -2,-2 -3,-5 -3,-9 0,-3 1,-6 4,-9 2,-2 5,-3 9,-3 4,0 9,2 13,6l-4 4c-3,-3 -6,-5 -9,-5 -2,0 -4,1 -5,2 -2,2 -3,3 -3,5 0,3 3,6 9,10 4,2 7,3 9,5 2,3 3,6 3,9z"/>
   <polygon class="fil3" points="296,118 290,118 290,53 296,53 "/>
   <polygon id="1" class="fil3" points="339,59 325,59 325,118 319,118 319,59 304,59 304,53 339,53 "/>
   <path id="2" class="fil3" d="M638 102c0,5 -2,9 -6,13 -3,3 -7,5 -12,5 -8,0 -15,-5 -20,-14l6 -3c4,7 8,10 13,10 5,0 8,-2 10,-5 1,-2 2,-4 2,-6 0,-2 -1,-4 -2,-6 -2,-3 -6,-6 -11,-10 -5,-4 -9,-7 -10,-9 -3,-4 -4,-7 -4,-10 0,-6 3,-11 8,-14 2,-1 5,-2 8,-2 6,0 12,4 17,11l-5 4c-2,-3 -4,-4 -5,-6 -2,-1 -5,-2 -7,-2 -3,0 -5,1 -6,2 -2,2 -3,4 -3,6 0,3 1,6 4,9 1,1 4,3 8,6 5,4 8,7 10,9 3,4 5,8 5,12z"/>
   <path id="3" class="fil3" d="M698 94c0,7 -3,13 -8,18 -4,5 -10,7 -17,7 -7,0 -13,-2 -18,-7 -4,-5 -7,-11 -7,-18 0,-7 2,-12 7,-17 4,-6 11,-8 18,-8 7,0 13,2 18,8 4,5 7,10 7,17zm-7 0c0,-5 -1,-10 -5,-13 -4,-4 -8,-6 -13,-6 -5,0 -10,2 -13,6 -4,3 -6,8 -6,13 0,4 1,7 3,10 1,3 4,5 7,7 2,2 5,2 9,2 7,0 12,-3 16,-9 1,-3 2,-6 2,-10z"/>
   <polygon id="4" class="fil3" points="714,118 708,118 708,51 714,51 "/>
   <path id="5" class="fil3" d="M767 94c0,5 0,9 -1,12 -1,5 -4,8 -8,10 -3,2 -7,3 -11,3 -9,0 -16,-3 -19,-11 -1,-3 -2,-8 -2,-15l0 -23 6 0 0 22c0,6 0,10 1,12 1,3 3,5 5,7 3,1 6,2 9,2 3,0 6,0 8,-2 3,-2 4,-4 5,-7 1,-2 1,-6 1,-12l0 -22 6 0 0 24z"/>
   <polygon id="6" class="fil3" points="802,75 793,75 793,118 786,118 786,75 778,75 778,70 786,70 786,52 793,52 793,70 802,70 "/>
   <path id="7" class="fil3" d="M818 55c0,2 0,3 -1,4 -1,1 -2,1 -4,1 -1,0 -2,0 -3,-1 -1,-1 -2,-2 -2,-4 0,-1 1,-2 2,-3 1,-1 2,-2 3,-2 2,0 3,1 4,2 1,1 1,2 1,3zm-1 63l-7 0 0 -48 7 0 0 48z"/>
   <path id="8" class="fil3" d="M876 94c0,7 -2,13 -7,18 -4,5 -10,7 -17,7 -7,0 -13,-2 -18,-7 -5,-5 -7,-11 -7,-18 0,-7 2,-12 7,-17 4,-6 10,-8 18,-8 7,0 13,2 18,8 4,5 6,10 6,17zm-6 0c0,-5 -2,-10 -5,-13 -4,-4 -8,-6 -13,-6 -6,0 -10,2 -13,6 -4,3 -6,8 -6,13 0,4 1,7 3,10 1,3 4,5 6,7 3,2 6,2 10,2 7,0 12,-3 16,-9 1,-3 2,-6 2,-10z"/>
   <path id="9" class="fil3" d="M929 118l-6 0 0 -23c0,-5 0,-9 -1,-11 -1,-6 -5,-10 -12,-10 -3,0 -7,2 -9,4 -3,3 -5,6 -6,9 -1,3 -1,7 -1,13l0 18 -6 0 0 -48 6 0 0 9c5,-7 11,-10 18,-10 3,0 6,1 9,2 3,2 5,5 6,8 2,3 2,8 2,14l0 25z"/>
   <path id="10" class="fil3" d="M966 105c0,4 -1,8 -4,10 -3,3 -6,4 -10,4 -6,0 -11,-2 -14,-6l4 -5c3,4 6,5 9,5 3,0 5,0 7,-2 1,-1 2,-3 2,-6 0,-2 -1,-4 -3,-6 -1,-1 -3,-2 -6,-3 -4,-2 -6,-4 -8,-6 -2,-2 -3,-5 -3,-9 0,-3 1,-6 4,-9 2,-2 5,-3 9,-3 4,0 9,2 13,6l-4 4c-3,-3 -6,-4 -9,-4 -2,0 -4,0 -5,1 -2,2 -3,3 -3,5 0,3 3,7 10,10 3,2 6,3 8,5 2,3 3,6 3,9z"/>
   <path id="11" class="fil4" d="M419 70c0,9 -5,15 -13,17 -3,0 -9,1 -17,1l-4 0 0 30 -7 0 0 -65 13 0c7,0 12,0 15,1 4,1 7,3 9,6 2,3 4,6 4,10zm-7 0c0,-2 -1,-4 -2,-6 -1,-1 -3,-3 -4,-4 -2,0 -6,-1 -10,-1l-11 0 0 22 11 0c7,1 12,-1 14,-5 1,-1 2,-3 2,-6z"/>
   <path id="12" class="fil4" d="M478 118l-7 0 0 -8c-5,6 -11,9 -19,9 -6,0 -12,-2 -17,-7 -5,-5 -7,-11 -7,-18 0,-7 3,-13 7,-18 5,-5 11,-7 18,-7 7,0 14,3 18,10l0 -9 7 0 0 48zm-6 -24c0,-5 -2,-10 -5,-14 -4,-3 -8,-5 -14,-5 -7,0 -12,3 -16,9 -2,3 -3,7 -3,10 0,4 1,7 3,10 2,3 4,5 7,7 3,2 6,3 9,3 3,0 7,-1 10,-3 3,-2 5,-4 6,-7 2,-3 3,-6 3,-10z"/>
   <polygon id="13" class="fil4" points="513,75 503,75 503,118 497,118 497,75 488,75 488,70 497,70 497,52 503,52 503,70 513,70 "/>
   <path id="14" class="fil5" d="M563 118l-6 0 0 -23c0,-5 0,-9 -1,-11 -1,-6 -5,-10 -12,-10 -3,0 -7,2 -10,4 -3,3 -4,6 -5,9 -1,3 -1,7 -1,13l0 18 -6 0 0 -67 6 0 0 28c5,-7 11,-10 18,-10 3,0 6,1 9,2 3,2 5,5 6,8 1,3 2,8 2,14l0 25z"/>
   <path class="fil3" d="M309 156c0,4 -2,7 -6,8 -1,0 -4,0 -8,0l-2 0 0 15 -3 0 0 -32 6 0c3,0 6,0 7,1 2,0 4,1 5,3 1,1 1,3 1,5zm-3 0c0,-1 0,-2 -1,-3 0,-1 -1,-2 -2,-2 -1,0 -3,-1 -5,-1l-5 0 0 11 5 0c4,0 6,0 7,-2 1,-1 1,-2 1,-3z"/>
   <path id="1" class="fil3" d="M354 156l-2 2c0,0 -1,0 -1,0 -3,0 -4,2 -5,5 -1,2 -1,4 -1,8l0 8 -3 0 0 -23 3 0 0 3c2,-3 4,-4 6,-4 1,0 2,0 3,1z"/>
   <path id="2" class="fil3" d="M388 148c0,1 -1,2 -1,2 0,1 -1,1 -2,1 0,0 -1,0 -1,-1 -1,0 -1,-1 -1,-2 0,0 0,-1 1,-1 0,-1 1,-1 1,-1 1,0 2,0 2,1 0,0 1,1 1,1zm-1 31l-3 0 0 -23 3 0 0 23z"/>
   <polygon id="3" class="fil3" points="441,156 430,179 430,179 419,156 422,156 430,173 438,156 "/>
   <path id="4" class="fil3" d="M497 179l-3 0 0 -4c-3,3 -6,5 -10,5 -3,0 -6,-1 -8,-4 -3,-2 -4,-5 -4,-9 0,-3 1,-6 4,-8 2,-3 5,-4 8,-4 4,0 7,2 10,5l0 -4 3 0 0 23zm-3 -11c0,-3 -1,-5 -3,-7 -2,-2 -4,-3 -6,-3 -4,0 -7,2 -8,5 -1,1 -2,3 -2,5 0,1 1,3 2,4 0,2 2,3 3,4 1,1 3,1 5,1 1,0 3,0 4,-1 2,-1 3,-2 4,-3 0,-2 1,-4 1,-5z"/>
   <polygon id="5" class="fil3" points="542,158 537,158 537,179 534,179 534,158 530,158 530,156 534,156 534,147 537,147 537,156 542,156 "/>
   <path id="6" class="fil3" d="M597 168l-21 0c0,2 1,5 3,6 1,2 3,3 6,3 2,0 5,-1 6,-2 1,-1 2,-2 3,-3l2 1c-1,3 -3,5 -6,6 -2,1 -3,1 -5,1 -3,0 -6,-1 -9,-4 -2,-2 -3,-5 -3,-8 0,-3 1,-6 3,-8 2,-3 5,-5 9,-5 4,0 7,2 10,5 1,2 2,5 2,8zm-3 -3c-1,-3 -3,-5 -5,-6 -1,-1 -3,-1 -4,-1 -2,0 -4,1 -6,2 -1,1 -2,3 -3,5l18 0z"/>
   <polygon id="7" class="fil3" points="663,179 647,179 647,147 650,147 650,176 663,176 "/>
   <path id="8" class="fil3" d="M699 148c0,1 -1,2 -1,2 -1,1 -1,1 -2,1 -1,0 -1,0 -2,-1 0,0 0,-1 0,-2 0,0 0,-1 0,-1 1,-1 1,-1 2,-1 1,0 1,0 2,1 0,0 1,1 1,1zm-1 31l-3 0 0 -23 3 0 0 23z"/>
   <path id="9" class="fil3" d="M767 179l-3 0 0 -13c0,-2 0,-3 0,-4 -1,-1 -2,-2 -3,-3 0,-1 -2,-1 -3,-1 -1,0 -3,0 -4,1 -1,1 -2,2 -2,4 -1,1 -1,4 -1,7l0 9 -3 0 0 -12c0,-2 0,-4 0,-4 -1,-2 -2,-3 -3,-4 -1,-1 -2,-1 -3,-1 -1,0 -3,0 -4,1 -1,1 -2,2 -2,4 -1,1 -1,3 -1,6l0 10 -3 0 0 -23 3 0 0 4c2,-3 5,-5 8,-5 2,0 4,1 6,2 0,1 1,2 1,4 2,-4 5,-6 9,-6 3,0 6,2 7,5 1,1 1,3 1,6l0 13z"/>
   <path id="10" class="fil3" d="M804 148c0,1 0,2 0,2 -1,1 -1,1 -2,1 -1,0 -1,0 -2,-1 0,0 0,-1 0,-2 0,0 0,-1 0,-1 1,-1 1,-1 2,-1 1,0 1,0 2,1 0,0 0,1 0,1zm0 31l-4 0 0 -23 4 0 0 23z"/>
   <polygon id="11" class="fil3" points="848,158 843,158 843,179 840,179 840,158 836,158 836,156 840,156 840,147 843,147 843,156 848,156 "/>
   <path id="12" class="fil3" d="M904 168l-21 0c0,2 0,5 2,6 2,2 4,3 6,3 3,0 5,-1 7,-2 0,-1 1,-2 2,-3l3 1c-2,3 -4,5 -7,6 -1,1 -3,1 -4,1 -4,0 -7,-1 -9,-4 -2,-2 -4,-5 -4,-8 0,-3 1,-6 3,-8 2,-3 6,-5 9,-5 4,0 8,2 10,5 2,2 3,5 3,8zm-4 -3c0,-3 -2,-5 -5,-6 -1,-1 -2,-1 -4,-1 -2,0 -4,1 -5,2 -2,1 -3,3 -3,5l17 0z"/>
   <path id="13" class="fil3" d="M960 179l-3 0 0 -4c-2,3 -5,5 -9,5 -3,0 -6,-1 -9,-4 -2,-2 -3,-5 -3,-9 0,-3 1,-6 4,-8 2,-3 5,-4 8,-4 4,0 7,2 9,5l0 -14 3 0 0 33zm-2 -11c0,-3 -1,-5 -3,-7 -2,-2 -4,-3 -7,-3 -3,0 -6,2 -8,5 0,1 -1,3 -1,5 0,1 1,3 1,4 1,2 2,3 4,4 1,1 3,1 4,1 2,0 4,0 5,-1 1,-1 3,-2 3,-3 1,-2 2,-4 2,-5z"/>
   <line class="fil6 str0" x1="288" y1="136" x2="622" y2= "136" />
   <line class="fil6 str1" x1="622" y1="136" x2="962" y2= "136" />
  </g>
  <g id="_217399445552">
   <path class="fil7" d="M120 9c-65,0 -117,52 -117,117 0,65 52,118 117,118 19,0 36,-5 51,-12l-24 -24 20 -17 26 27c27,-21 45,-55 45,-92 0,-65 -53,-117 -118,-117z"/>
   <path class="fil8" d="M13 123c0,61 50,108 111,108 61,0 110,-47 110,-108 0,-61 -49,-110 -110,-110 -61,0 -111,49 -111,110z"/>
   <path class="fil7" d="M147 238c0,0 -104,-149 83,-225 0,0 -159,84 -66,212l-17 13z"/>
   <path class="fil7" d="M188 213c0,0 -71,-107 70,-200 0,0 -111,96 -57,191l-13 9z"/>
   <polygon class="fil7" points="230,13 202,21 218,18 "/>
   <polygon class="fil7" points="258,13 248,28 251,19 "/>
   <path class="fil3" d="M117 0c-64,0 -117,53 -117,117 0,65 53,118 117,118 19,0 36,-4 51,-12l-24 -24 20 -16 27 26c27,-21 44,-54 44,-92 0,-64 -53,-117 -118,-117z"/>
   <path class="fil8" d="M10 115c0,61 50,107 111,107 61,0 111,-46 111,-107 0,-61 -50,-111 -111,-111 -61,0 -111,50 -111,111z"/>
   <path class="fil3" d="M144 230c0,0 -103,-150 83,-226 0,0 -158,85 -66,212l-17 14z"/>
   <path class="fil3" d="M185 204c0,0 -71,-107 70,-200 0,0 -111,96 -56,191l-14 9z"/>
   <polygon class="fil3" points="227,4 200,12 215,10 "/>
   <polygon class="fil3" points="255,4 245,19 248,11 "/>
  </g>
 </g>
</svg>
